<?xml version="1.0" encoding="utf-8"?>
<!-- Generator: Adobe Illustrator 24.1.1, SVG Export Plug-In . SVG Version: 6.00 Build 0)  -->
<svg version="1.1" id="Layer_1" xmlns="http://www.w3.org/2000/svg" xmlns:xlink="http://www.w3.org/1999/xlink" x="0px" y="0px"
	 viewBox="0 0 512 512" style="enable-background:new 0 0 512 512;" xml:space="preserve">
<g>
	<path d="M147.1,0l-25.9,59.8H82.7v53.7h14.7l15.1,95.6H89l31.2,175.6l20-0.2L160.2,512h190.2l1.3-8.5l18.8-119.1l19,0.2l31.1-175.6
		h-22.5l15-95.6h16.2V59.8h-40.9L362.4,0L147.1,0z M158.4,17.2h192.9l16.4,38H141.9L158.4,17.2z M99.7,76.9h312.4v19.6H99.7V76.9z
		 M109.4,226.2h290.9l-25.1,141.2l-120.6-1.3l-120.2,1.3L109.4,226.2z"/>
</g>
</svg>
